<?xml version="1.0" encoding="UTF-8" standalone="no"?>
<svg viewBox="0 0 50 50" version="1.1" xmlns="http://www.w3.org/2000/svg" xmlns:xlink="http://www.w3.org/1999/xlink" xmlns:sketch="http://www.bohemiancoding.com/sketch/ns">
    <g id="Page-1" stroke="none" stroke-width="1" fill="none" fill-rule="evenodd">
        <g id="1436339897_logo-behance" sketch:type="MSLayerGroup" fill="#FFFFFF">
            <g id="Group">
                <path d="M21.068,20.86 C21.068,18.96 19.775,18.96 19.775,18.96 L19.09,18.96 L14.456,18.96 L14.454,18.96 L14.454,23.038 L19.445,23.038 C20.308,23.038 21.068,22.763 21.068,20.86 L21.068,20.86 Z" id="Shape"></path>
                <path d="M33.394,23.038 C30.572,23.038 30.179,25.854 30.179,25.854 L36.182,25.854 C36.182,25.854 36.219,23.038 33.394,23.038 L33.394,23.038 Z" id="Shape"></path>
                <path d="M19.775,25.854 L14.457,25.854 L14.457,30.738 L19.168,30.738 C19.248,30.738 19.366,30.742 19.507,30.738 C20.264,30.721 21.703,30.503 21.703,28.364 C21.703,25.83 19.775,25.854 19.775,25.854 L19.775,25.854 Z" id="Shape"></path>
                <path d="M25,0.174 C11.311,0.174 0.174,11.311 0.174,25 C0.174,38.689 11.311,49.826 25,49.826 C38.689,49.826 49.826,38.689 49.826,25 C49.826,11.311 38.689,0.174 25,0.174 L25,0.174 Z M29.392,16.789 L36.932,16.789 L36.932,19.04 L29.392,19.04 L29.392,16.789 L29.392,16.789 Z M25.581,28.593 C25.581,34.17 19.775,33.987 19.775,33.987 L14.457,33.987 L14.301,33.987 L10.267,33.987 L10.267,15.712 L14.301,15.712 L14.457,15.712 L19.775,15.712 C22.666,15.712 24.947,17.309 24.947,20.579 C24.947,23.848 22.159,24.056 22.159,24.056 C25.834,24.056 25.581,28.593 25.581,28.593 L25.581,28.593 Z M39.685,28.293 L30.215,28.293 C30.215,31.689 33.431,31.474 33.431,31.474 C36.468,31.474 36.361,29.509 36.361,29.509 L39.579,29.509 C39.579,34.726 33.325,34.368 33.325,34.368 C25.822,34.368 26.304,27.383 26.304,27.383 C26.304,27.383 26.298,20.361 33.325,20.361 C40.722,20.361 39.684,28.293 39.685,28.293 L39.685,28.293 Z" id="Shape"></path>
            </g>
        </g>
    </g>
</svg>
