<?xml version="1.0" encoding="utf-8"?>
<!-- Generator: Adobe Illustrator 16.0.0, SVG Export Plug-In . SVG Version: 6.00 Build 0)  -->
<!DOCTYPE svg PUBLIC "-//W3C//DTD SVG 1.1//EN" "http://www.w3.org/Graphics/SVG/1.1/DTD/svg11.dtd">
<svg version="1.1" id="Layer_1" xmlns="http://www.w3.org/2000/svg" xmlns:xlink="http://www.w3.org/1999/xlink" x="0px" y="0px"
	 width="271px" height="839px" viewBox="0 0 271 839" enable-background="new 0 0 271 839" xml:space="preserve">
<path fill="#FFFFFF" d="M226.012,838.291l22.531-35.316L56.815,714.038l-0.193,0.566l-0.228-0.762l-0.802-0.372l0.664-0.088
	L2.096,532.145l-0.599-0.975l0.985,0.577l108.024,26.879L67.669,387.668l0.104-0.117l37.516-42.224L69.378,233.163l-0.066-0.029
	l0.038-0.058l-0.017-0.053l-0.291-0.265l0.201-0.013L29.886,109.81l0.386,0.179L103.387,0l0.204,0.467l162.182,218.059l0.975,0.45
	l-1.106,0.08l-38.562,14.144l10.136,73.412l0.092,0.211l-0.057,0.032l0.042,0.324l-0.229-0.102L135.563,506.752l14.431,111.171
	l61.014,75.442l-0.122,0.018L265.8,810.327l0.373,0.172l-0.219,0.153l0.238,0.513l-0.586-0.273L226.012,838.291z M249.085,803.226
	l-20.991,32.903l36.888-25.527L249.085,803.226z M248.878,802.449l16.087,7.488l-54.694-116.473l-103.12,13.736l-0.074,0.151
	l-0.074-0.131l-49.313,6.566l191.174,88.683L248.878,802.449z M77.161,654.338l-20.085,58.934l49.613-6.607L77.161,654.338z
	 M3.301,534.106l53.359,178.551l20.107-59.005L3.301,534.106z M149.776,618.595l-42.318,87.966l102.428-13.644L149.776,618.595z
	 M77.507,653.747l29.529,52.323l42.039-87.384L77.507,653.747z M77.027,652.894l0.188,0.333l71.868-35.206L3.24,532.877
	l73.776,120.048L77.027,652.894z M4.306,532.811l144.464,84.338l-37.812-57.51l-0.128,0.279l-0.16-0.643L4.306,532.811z
	 M111.252,559.009l37.36,56.823l-27.606-77.797L111.252,559.009z M121.365,537.268l27.692,78.05L135.094,507.75L121.365,537.268z
	 M69.791,393.695l41.207,164.454l9.727-20.911L69.791,393.695z M69.413,390.855l51.67,145.615l13.842-29.761L69.413,390.855z
	 M103.631,450.165l31.149,55.087l-27.472-222.178l-1.365,62.008h0.333l-0.343,0.407L103.631,450.165z M107.48,279.647
	l27.889,225.545l47.172-168.941L107.48,279.647z M183.132,336.336l-46.786,167.568l99.882-196.494L183.132,336.336z M68.357,387.784
	l34.704,61.374l2.266-102.981L68.357,387.784z M70.326,234.181l35.055,109.491l1.421-64.581L70.326,234.181z M71.293,234.007
	l111.633,101.768l53.33-29.055l-94.782-41.777L71.293,234.007z M107.31,278.773l70.669,53.293l-105.5-96.177L107.31,278.773z
	 M70.962,233.213l165.391,72.902l-35.864-82.164l-0.065-0.023l0.025-0.07l-0.026-0.06L70.962,233.213z M201.255,224.225
	l35.084,80.381l-9.856-71.384L201.255,224.225z M201.585,223.714l25.164,8.974l36.745-13.476L201.585,223.714z M122.626,153.205
	l-52.296,79.46l129.838-9.442l-18.729-42.912L122.626,153.205z M30.861,110.913l38.908,121.527l52.313-79.486L30.861,110.913z
	 M182.25,180.684l18.547,42.494l63.613-4.626L182.25,180.684z M181.894,179.869l82.754,38.138L104.641,2.872L181.894,179.869z
	 M30.817,110.24l150.266,69.255L103.278,1.235L30.817,110.24z"/>
</svg>
